<svg width="14" height="13" viewBox="0 0 14 13" fill="none" xmlns="http://www.w3.org/2000/svg">
<path d="M4.04386 7.36844L9.14089 2.17156C9.19565 2.11573 9.63254 1.67028 10.324 1.42914C11.2886 1.11377 12.2719 1.37331 13.0548 2.17156C13.8558 2.9698 14.0923 3.95335 13.783 4.93689C13.5645 5.64248 13.1096 6.12475 13.0548 6.18058L7.57567 11.7671C6.62907 12.7322 4.2623 13.9759 2.07786 11.7671C-0.0885218 9.55826 1.14933 7.12671 2.07786 6.18058L7.9578 0.167043C8.17624 -0.0556809 8.52226 -0.0556809 8.7407 0.167043C8.95915 0.389767 8.95915 0.742561 8.7407 0.965285L2.87882 6.97883C2.78795 7.05307 0.948943 9.00175 2.87882 10.9694C4.75395 12.8813 6.59238 11.1738 6.79276 10.9694L12.2719 5.36393C12.2719 5.36393 12.5812 5.04855 12.7269 4.60311C12.9092 4.00918 12.7816 3.48949 12.2719 2.9698C11.1797 1.85618 10.1236 2.7839 9.9238 2.9698L4.82676 8.14827C4.64444 8.33417 4.51745 8.64955 4.82676 8.96493C5.13608 9.2803 5.42734 9.13182 5.60967 8.96493L9.14147 5.36393C9.35992 5.15962 9.72399 5.15962 9.92438 5.36393C10.1428 5.58665 10.1428 5.95786 9.92438 6.18058L6.39257 9.76258C5.90093 10.2454 4.89958 10.6351 4.04444 9.76258C3.17067 8.89009 3.55221 7.85071 4.04386 7.36844Z" fill="#808080"/>
</svg>
