<svg width="19" height="20" viewBox="0 0 19 20" fill="none" xmlns="http://www.w3.org/2000/svg">
<path d="M16.0117 19V17C16.0117 16.2044 15.6957 15.4413 15.133 14.8787C14.5704 14.3161 13.8074 14 13.0117 14H5.01172C4.21607 14 3.45301 14.3161 2.8904 14.8787C2.32779 15.4413 2.01172 16.2044 2.01172 17V19C2.01172 19.2652 1.90636 19.5196 1.71883 19.7071C1.53129 19.8946 1.27694 20 1.01172 20C0.746502 20 0.492148 19.8946 0.304611 19.7071C0.117075 19.5196 0.0117188 19.2652 0.0117188 19V17C0.0117188 15.6739 0.538503 14.4022 1.47618 13.4645C2.41387 12.5268 3.68564 12 5.01172 12H13.0117C14.3378 12 15.6096 12.5268 16.5473 13.4645C17.4849 14.4022 18.0117 15.6739 18.0117 17V19C18.0117 19.2652 17.9064 19.5196 17.7188 19.7071C17.5313 19.8946 17.2769 20 17.0117 20C16.7465 20 16.4921 19.8946 16.3046 19.7071C16.1171 19.5196 16.0117 19.2652 16.0117 19ZM4.01172 5C4.01172 4.0111 4.30496 3.04442 4.85437 2.22217C5.40378 1.39992 6.18467 0.759055 7.0983 0.380617C8.01193 0.00217915 9.01727 -0.0968547 9.98717 0.0960714C10.9571 0.288998 11.848 0.765217 12.5473 1.46448C13.2465 2.16374 13.7227 3.05463 13.9156 4.02454C14.1086 4.99444 14.0096 5.99976 13.6311 6.91339C13.2527 7.82702 12.6118 8.60794 11.7896 9.15735C10.9673 9.70676 10.0006 10 9.01172 10C7.68564 10 6.41387 9.47321 5.47618 8.53552C4.5385 7.59784 4.01172 6.32608 4.01172 5ZM6.01172 5C6.01172 5.59335 6.18767 6.17334 6.51731 6.66669C6.84696 7.16004 7.31549 7.54461 7.86367 7.77167C8.41185 7.99873 9.01505 8.05814 9.59699 7.94238C10.1789 7.82663 10.7135 7.5409 11.133 7.12134C11.5526 6.70178 11.8383 6.16721 11.9541 5.58527C12.0698 5.00332 12.0104 4.40011 11.7834 3.85193C11.5563 3.30375 11.1718 2.83526 10.6784 2.50562C10.1851 2.17597 9.60506 2 9.01172 2C8.21607 2 7.45301 2.31606 6.8904 2.87866C6.32779 3.44127 6.01172 4.20435 6.01172 5Z" fill="#0077B6"/>
</svg>
